<svg width="689" height="508" viewBox="0 0 689 508" fill="none" xmlns="http://www.w3.org/2000/svg">
<mask id="mask0" mask-type="alpha" maskUnits="userSpaceOnUse" x="0" y="0" width="689" height="508">
<rect width="689" height="508" rx="32" fill="#F5F5F5"/>
</mask>
<g mask="url(#mask0)">
<path d="M563.816 608.675L535.256 438.663H446.395L417.835 608.675C417.706 609.48 417.753 610.304 417.973 611.089C418.193 611.875 418.58 612.603 419.109 613.224C419.638 613.845 420.295 614.344 421.035 614.687C421.775 615.029 422.58 615.208 423.396 615.209V615.209C424.683 615.211 425.933 614.772 426.935 613.965C427.938 613.158 428.634 612.031 428.906 610.773L466.302 438.627H515.342L552.738 610.773C553.013 612.031 553.71 613.157 554.714 613.964C555.718 614.771 556.967 615.21 558.255 615.209C559.071 615.208 559.876 615.029 560.616 614.687C561.356 614.344 562.013 613.845 562.542 613.224C563.071 612.603 563.458 611.875 563.678 611.089C563.898 610.304 563.945 609.48 563.816 608.675V608.675Z" fill="#A15842"/>
<path d="M654.789 608.675L626.229 438.663H537.368L508.801 608.675C508.673 609.481 508.721 610.304 508.942 611.09C509.163 611.875 509.551 612.603 510.08 613.224C510.609 613.845 511.267 614.344 512.007 614.687C512.748 615.029 513.553 615.207 514.369 615.209V615.209C515.657 615.211 516.906 614.772 517.909 613.965C518.911 613.158 519.607 612.031 519.879 610.773L557.275 438.627H606.286L643.682 610.773C643.957 612.031 644.654 613.157 645.658 613.964C646.662 614.771 647.911 615.21 649.199 615.209V615.209C650.017 615.212 650.826 615.037 651.57 614.696C652.313 614.355 652.974 613.857 653.506 613.235C654.038 612.614 654.428 611.884 654.65 611.096C654.871 610.309 654.919 609.483 654.789 608.675Z" fill="#CA7358"/>
<path d="M565.036 411.258L575.926 368.657H503.726C489.574 368.656 475.824 373.364 464.642 382.039C453.46 390.714 445.483 402.863 441.967 416.572L434.591 445.466H520.983C531.082 445.466 540.894 442.104 548.871 435.91C556.847 429.716 562.535 421.042 565.036 411.258V411.258Z" fill="#F4BDC7"/>
<path d="M606.889 445.466H434.591L437.495 433.901H513.128L541.971 321.097C545.901 305.731 554.833 292.11 567.361 282.382C579.888 272.655 595.297 267.375 611.158 267.374V267.374C649.969 267.374 678.37 303.956 668.757 341.555L650.934 411.25C648.435 421.035 642.749 429.709 634.774 435.904C626.799 442.1 616.988 445.464 606.889 445.466V445.466Z" fill="#F4BDC7"/>
<path d="M439.281 432.776H530.944" stroke="#A15842" stroke-width="4" stroke-linecap="round" stroke-linejoin="round"/>
<path d="M513.462 432.355L529.521 369.55" stroke="#A15842" stroke-width="4" stroke-linecap="round" stroke-linejoin="round"/>
<path d="M387.096 121.175C382.283 108.928 373.557 94.771 368.816 98.8292C367.669 99.8166 366.979 101.494 366.638 103.65C365.716 109.726 367.655 119.621 370.152 128.624L362.66 131.898C362.611 132.124 362.548 132.347 362.471 132.566C361.099 136.617 356.591 137.031 356.591 137.031C356.591 137.031 361.883 140.312 359.531 145.692C357.179 151.071 349.534 149.322 349.534 149.322C354.456 154.578 353.781 158.295 350.637 160.814C349.995 161.276 349.245 161.566 348.459 161.656C348.67 168.277 349.091 175.856 349.861 183.813L400.186 167.842C396.033 150.636 390.872 130.78 387.096 121.175Z" fill="#A15842"/>
<path d="M369.056 130.068C369.535 131.586 369.971 132.878 370.167 133.364C370.167 133.364 366.108 142.846 368.134 153.002" stroke="#1E232C" stroke-width="4" stroke-linecap="round" stroke-linejoin="round"/>
<path d="M350.638 160.843C353.781 158.324 354.456 154.607 349.534 149.351C349.534 149.351 357.179 151.079 359.531 145.721C361.883 140.363 356.591 137.06 356.591 137.06C356.591 137.06 362.21 136.566 362.812 131.07" stroke="#1E232C" stroke-width="8" stroke-linecap="round" stroke-linejoin="round"/>
<path d="M344.133 108.049C347.08 108.935 360.228 109.08 362.065 117.618C362.936 121.64 357.556 123.237 357.556 123.237C357.556 123.237 363.364 126.076 362.812 131.049C362.779 131.337 362.728 131.623 362.66 131.905L370.167 128.624C367.669 119.622 365.731 109.748 366.653 103.65L357.745 84.0482L348.206 63.0454L327.878 72.2872L337.417 93.29L340.554 100.187L344.133 108.049Z" fill="#EAA58B"/>
<path d="M357.556 123.237C357.556 123.237 362.936 121.64 362.065 117.618C360.228 109.08 347.08 108.906 344.133 108.049L340.575 100.187C340.423 100.187 333.86 101.218 331.21 105.32C327.058 111.752 332.118 116.362 332.118 116.362C332.118 116.362 321.881 119.861 327.087 129.517C327.087 129.517 321.213 136.864 328.539 142.737C328.539 142.737 322.992 147.688 330.23 154.353C336.22 159.885 344.205 162.39 348.481 161.664C349.267 161.573 350.017 161.283 350.659 160.821C353.803 158.302 354.478 154.585 349.556 149.329C349.556 149.329 357.201 151.057 359.553 145.699C361.905 140.341 356.613 137.038 356.613 137.038C356.613 137.038 361.121 136.624 362.493 132.573C362.57 132.355 362.633 132.132 362.682 131.905C362.75 131.623 362.801 131.337 362.834 131.049C363.364 126.09 357.556 123.237 357.556 123.237Z" fill="#A15842"/>
<path d="M357.912 123.142C350.311 122.416 339.559 120.594 331.486 116.267" stroke="#1E232C" stroke-width="4" stroke-linecap="round" stroke-linejoin="round"/>
<path d="M358.725 138.577C351.262 137.996 338.79 135.767 327.66 130.591" stroke="#1E232C" stroke-width="4" stroke-linecap="round" stroke-linejoin="round"/>
<path d="M352.99 151.369C348.373 150.36 336.387 147.528 328.437 143.877" stroke="#1E232C" stroke-width="4" stroke-linecap="round" stroke-linejoin="round"/>
<path d="M600.377 235.605C600.394 234.58 600.36 233.556 600.275 232.534L599.128 226.087C594.525 209.833 578.503 197.484 572.615 178.049L552.527 178.245V177.867L526.537 189.563L516.446 168.473H516.264L506.942 189.563L496.22 178.165V178.245C496.22 178.245 463.63 179.407 407.431 199.037C407.431 199.037 404.295 184.699 400.23 167.9L349.904 183.871C352.874 214.472 361.099 250.56 383.053 258.648C408.782 268.122 471.079 249.842 471.079 249.842L479.878 319.58H595.658V306.694C595.658 306.694 605.139 301.975 605.139 291.121C605.118 271.491 599.694 268.783 600.377 235.605Z" fill="#0273E8"/>
<path d="M516.257 168.473H497.476L496.212 178.165L506.935 189.563L516.257 168.473Z" fill="#F5EBDD"/>
<path d="M516.482 168.473L526.573 189.563L552.563 177.867C552.665 176.793 552.992 173.511 553.427 168.872V168.473H516.482Z" fill="#F5EBDD"/>
<path d="M466.991 228.156L469.554 249.014" stroke="#223446" stroke-width="4" stroke-linecap="round" stroke-linejoin="round"/>
<path d="M516.082 211.909C519.262 211.909 521.839 209.332 521.839 206.152C521.839 202.973 519.262 200.395 516.082 200.395C512.903 200.395 510.325 202.973 510.325 206.152C510.325 209.332 512.903 211.909 516.082 211.909Z" fill="#1E232C"/>
<path d="M365.767 202.427C368.947 202.427 371.524 199.85 371.524 196.67C371.524 193.491 368.947 190.913 365.767 190.913C362.588 190.913 360.01 193.491 360.01 196.67C360.01 199.85 362.588 202.427 365.767 202.427Z" fill="#1E232C"/>
<path d="M408.862 199.386L411.468 211.902" stroke="#223446" stroke-width="4" stroke-linecap="round" stroke-linejoin="round"/>
<path d="M516.264 168.473H516.489L516.424 168.335H553.449V168.473H553.5C553.805 165.199 554.175 161.293 554.567 157.075C548.207 154.941 532.316 148.567 526.74 136.791C536.127 133.662 547.068 120.362 539.256 109.407C528.889 94.8873 511.095 114.104 511.095 114.104C511.095 114.104 500.14 107.062 494.666 92.2012C492.321 92.978 485.279 93.762 479.805 92.2012C479.805 92.2012 477.453 98.4592 475.892 109.407C475.674 110.917 475.432 112.369 475.166 113.763C475.166 113.763 468.073 113.335 467.296 116.464C466.324 120.333 472.531 124.449 472.531 124.449C470.099 133.161 468.08 139.906 471.202 147.717C473.961 154.607 479.812 162.578 498.586 160.233L497.534 168.314H516.351L516.264 168.473Z" fill="#A15842"/>
<path d="M494.637 92.2011C500.111 107.062 511.066 114.104 511.066 114.104C511.066 114.104 528.86 94.8945 539.227 109.407C547.046 120.362 536.098 133.662 526.711 136.791C532.287 148.567 548.178 154.941 554.538 157.075C555.91 142.156 557.565 123.266 558.001 114.104C558.727 99.1705 557.275 77.2676 532.969 66.385C510.282 56.2212 489.163 71.8589 489.163 71.8589C489.163 71.8589 469.874 66.3052 468.835 78.901C468.051 88.288 479.791 92.2011 479.791 92.2011C485.25 93.762 492.307 92.9779 494.637 92.2011Z" fill="#EAA58B"/>
<path d="M499.065 161.663C502.797 161.017 508.024 159.645 512.235 156.756" stroke="#1E232C" stroke-width="4" stroke-miterlimit="10" stroke-linecap="round"/>
<path d="M478.869 131.68C480.168 132.486 485.011 133.132 486.978 129.386" stroke="#1E232C" stroke-width="4" stroke-miterlimit="10" stroke-linecap="round"/>
<path d="M488.379 113.342C489.686 113.342 490.746 112.282 490.746 110.975C490.746 109.668 489.686 108.608 488.379 108.608C487.072 108.608 486.012 109.668 486.012 110.975C486.012 112.282 487.072 113.342 488.379 113.342Z" fill="#1E232C"/>
<path d="M529.056 118.794L520.453 124.268" stroke="#1E232C" stroke-width="4" stroke-miterlimit="10" stroke-linecap="round"/>
<path d="M479.856 319.558C479.856 319.558 421.624 341.229 399.997 352.736C362.406 372.708 357.825 383.38 334.659 453.713C326.92 477.032 321.7 496.038 316.77 510.863L379.372 539.474L379.452 539.314L389.616 544.069C389.616 544.069 406.016 522.711 408.644 498.536C412.041 467.318 410.009 446.214 424.274 433.981L589.407 319.536L479.856 319.558Z" fill="#1E232C"/>
<path d="M547.917 319.558C547.917 319.558 476.633 339.087 442.054 360.213C406.154 382.116 405.754 399.976 410.996 458.599" stroke="black" stroke-width="4" stroke-linecap="round" stroke-linejoin="round"/>
<path d="M530.762 434.053L528.062 444.689" stroke="#A15842" stroke-width="4" stroke-linecap="round" stroke-linejoin="round"/>
<path d="M661.81 367.205H616.443" stroke="#A15842" stroke-width="4" stroke-linecap="round" stroke-linejoin="round"/>
<path d="M110.046 608.675L138.606 438.664H227.474L256.034 608.675C256.164 609.481 256.116 610.305 255.896 611.091C255.676 611.877 255.287 612.606 254.758 613.227C254.229 613.848 253.571 614.347 252.83 614.689C252.089 615.031 251.282 615.209 250.466 615.209V615.209C249.179 615.209 247.932 614.769 246.929 613.962C245.927 613.155 245.231 612.03 244.956 610.773L207.56 438.664H158.52L121.124 610.809C120.849 612.066 120.153 613.192 119.151 613.998C118.149 614.805 116.901 615.245 115.614 615.245V615.245C114.794 615.246 113.984 615.068 113.24 614.724C112.496 614.379 111.836 613.877 111.306 613.251C110.776 612.626 110.389 611.893 110.171 611.102C109.954 610.312 109.911 609.484 110.046 608.675V608.675Z" fill="#A15842"/>
<path d="M19.0724 608.675L47.6327 438.664H136.501L165.061 608.675C165.19 609.481 165.143 610.305 164.923 611.091C164.702 611.877 164.314 612.606 163.785 613.227C163.255 613.848 162.597 614.347 161.856 614.689C161.115 615.031 160.309 615.209 159.493 615.209C158.206 615.209 156.958 614.769 155.956 613.962C154.954 613.155 154.257 612.03 153.982 610.773L116.587 438.664H67.5465L30.151 610.809C29.8761 612.066 29.1798 613.192 28.1776 613.998C27.1753 614.805 25.9274 615.245 24.6408 615.245V615.245C23.821 615.246 23.0109 615.068 22.2669 614.724C21.523 614.379 20.863 613.877 20.333 613.251C19.803 612.626 19.4156 611.893 19.1979 611.102C18.9802 610.312 18.9374 609.484 19.0724 608.675V608.675Z" fill="#CA7358"/>
<path d="M108.833 411.258L97.9434 368.657H170.143C184.295 368.655 198.046 373.363 209.228 382.038C220.41 390.713 228.387 402.863 231.902 416.572L239.278 445.43H152.886C142.791 445.433 132.983 442.077 125.006 435.889C117.03 429.702 111.34 421.036 108.833 411.258V411.258Z" fill="#0273E8"/>
<path d="M66.9729 445.466H239.271L236.367 433.901H160.734L131.883 321.097C127.954 305.731 119.021 292.11 106.494 282.382C93.9665 272.655 78.5574 267.375 62.6968 267.374V267.374C23.8856 267.374 -4.51501 303.956 5.09705 341.555L22.9273 411.25C25.4243 421.036 31.1095 429.712 39.0853 435.907C47.0611 442.103 56.8733 445.466 66.9729 445.466V445.466Z" fill="#0273E8"/>
<path d="M234.581 432.776H142.918" stroke="#744DA6" stroke-width="4" stroke-miterlimit="10" stroke-linecap="round"/>
<path d="M160.407 432.355L144.341 369.55" stroke="#744DA6" stroke-width="4" stroke-miterlimit="10" stroke-linecap="round"/>
<path d="M143.456 435.52L145.801 444.689" stroke="#744DA6" stroke-width="4" stroke-linecap="round" stroke-linejoin="round"/>
<path d="M12.052 367.205H57.4189" stroke="#744DA6" stroke-width="4" stroke-linecap="round" stroke-linejoin="round"/>
<path d="M516.082 211.909C519.262 211.909 521.839 209.332 521.839 206.152C521.839 202.973 519.262 200.395 516.082 200.395C512.903 200.395 510.325 202.973 510.325 206.152C510.325 209.332 512.903 211.909 516.082 211.909Z" fill="#1E232C"/>
<path d="M599.128 226.087L600.275 232.534C600.107 230.353 599.723 228.193 599.128 226.087V226.087Z" fill="#A15842"/>
<path d="M553.427 168.872L553.471 168.473H553.42L553.427 168.872Z" fill="#0273E8"/>
<path d="M497.497 168.335H497.381L497.367 168.472H497.475L497.497 168.335Z" fill="#F5EBDD"/>
<path d="M516.257 168.473L516.315 168.335H497.497L497.476 168.473H516.257Z" fill="#F5EBDD"/>
<path d="M497.367 168.473L496.104 178.049L496.212 178.165L497.476 168.473H497.367Z" fill="#F5EBDD"/>
<path d="M553.413 168.335H516.417L516.482 168.473H553.42L553.413 168.335Z" fill="#F5EBDD"/>
<path d="M113.327 89.21C131.61 89.21 146.432 74.3883 146.432 56.105C146.432 37.8216 131.61 23 113.327 23C95.0438 23 80.2222 37.8216 80.2222 56.105C80.2222 74.3883 95.0438 89.21 113.327 89.21Z" fill="#1E232C"/>
<path d="M136.189 78.1748C134.163 79.1041 151.166 38.761 159.834 45.0626C168.001 51.0084 146.432 73.4487 136.189 78.1748Z" fill="#0273E8"/>
<path d="M135.245 80.6433C133.393 82.8576 90.0301 67.6918 96.0413 58.9364C101.791 50.5149 137.096 78.4291 135.245 80.6433Z" fill="#0273E8"/>
<path d="M195.059 101.356C188.764 102.416 179.544 100.252 179.544 100.252C166.927 114.438 153.525 117.589 153.525 117.589C144.857 108.151 129.088 108.151 126.729 121.531C124.108 136.363 142.49 140.45 142.49 140.45C142.49 140.45 145.096 158.992 138.003 168.451C137.009 169.773 136.094 170.934 135.179 171.958H170.339L169.294 165.678C169.294 165.678 180.328 169.62 189.788 164.103C199.248 158.585 201.614 148.334 198.456 132.566C196.591 123.23 196.656 111.679 195.059 101.356Z" fill="#EAA58B"/>
<path d="M183.298 301.953C167.725 310.759 159.594 327.682 159.594 327.682H213.76L197.65 295.375C191.233 298.149 185.214 300.849 183.298 301.953Z" fill="#FF7235"/>
<path d="M107.534 180.917C83.7505 183.559 74.9805 191.995 57.6658 212.773C53.3897 217.906 46.776 226.647 42.6379 232.106L42.7685 232.215C42.7685 232.215 12.6474 269.567 14.034 297.967L56.2791 309.765L85.1153 272.188L93.2464 297.241C93.2464 297.241 74.966 308.073 64.8095 327.733H159.594C159.594 327.733 167.725 310.81 183.298 302.004C185.229 300.9 191.233 298.214 197.65 295.427L195.473 291.071L202.231 270.162L217.158 287.063C217.158 287.063 206.994 291.325 197.658 295.376L213.767 327.682H270.648C302.468 306.694 278.09 268.783 267.94 255.236C260.949 245.922 228.665 199.037 206.326 186.855C191.429 178.731 171.667 179.864 171.667 179.864L170.346 171.958H135.179C130.359 177.345 125.415 178.927 107.534 180.917Z" fill="#CE596D"/>
<path d="M217.114 285.553L229.34 280.965" stroke="#A15842" stroke-width="4" stroke-miterlimit="10" stroke-linecap="round"/>
<path d="M106.75 291.615C106.938 278.315 109.131 244.622 125.742 227.467C144.065 208.591 185.323 212.577 198.188 229.5C211.052 246.422 202.253 270.155 202.253 270.155L196.162 291.143L213.76 327.704H55.9888L87.1336 299.267L106.75 291.615Z" fill="#F4BDC7"/>
<path d="M106.786 291.121H196.111" stroke="#F5EBDD" stroke-width="4" stroke-miterlimit="10" stroke-linecap="round"/>
<path d="M145.379 262.684H179.907" stroke="#F5EBDD" stroke-width="4" stroke-miterlimit="10" stroke-linecap="round"/>
<path d="M209.027 290.446L226.625 331.102H192.772C186.006 331.102 177.199 331.101 177.882 327.711C172.459 331.777 163.66 331.101 164.335 327.711C155.536 331.777 152.828 329.069 152.153 327.711C151.478 326.354 160.277 314.847 179.907 303.957C191.313 297.699 209.027 290.446 209.027 290.446Z" fill="#EAA58B"/>
<path d="M160.277 330.39C160.277 330.39 170.44 320.226 192.772 308.051" stroke="#A15842" stroke-width="4" stroke-miterlimit="10" stroke-linecap="round"/>
<path d="M198.87 315.5C187.34 322.717 176.26 330.631 165.692 339.196" stroke="#A15842" stroke-width="4" stroke-miterlimit="10" stroke-linecap="round"/>
<path d="M205.636 323.624C187.392 333.105 167.065 345.969 167.065 345.969" stroke="#A15842" stroke-width="4" stroke-miterlimit="10" stroke-linecap="round"/>
<path d="M106.927 179.737L124.703 173.154C124.745 173.138 124.789 173.131 124.834 173.133C124.879 173.135 124.923 173.145 124.964 173.164C125.004 173.183 125.041 173.209 125.072 173.242C125.102 173.275 125.126 173.313 125.141 173.356L146.169 230.142C147.074 232.585 146.971 235.287 145.883 237.654C144.796 240.021 142.812 241.859 140.369 242.764C137.926 243.669 135.224 243.566 132.857 242.478C130.49 241.39 128.651 239.407 127.747 236.964L106.719 180.178C106.703 180.135 106.696 180.09 106.698 180.044C106.7 179.999 106.711 179.954 106.73 179.913C106.749 179.872 106.777 179.835 106.811 179.805C106.844 179.775 106.884 179.751 106.927 179.737V179.737Z" fill="#A15842"/>
<path d="M185.047 245.152C186.331 245.299 187.632 245.192 188.874 244.837C190.117 244.481 191.277 243.884 192.288 243.079C193.3 242.275 194.143 241.279 194.769 240.148C195.395 239.018 195.792 237.775 195.937 236.491L201.803 184.728C195.626 182.326 189.138 180.817 182.535 180.249L176.393 234.262C176.246 235.545 176.353 236.845 176.708 238.087C177.063 239.329 177.659 240.489 178.463 241.501C179.267 242.512 180.262 243.355 181.392 243.981C182.522 244.608 183.764 245.006 185.047 245.152Z" fill="#A15842"/>
<path d="M136.769 238.56C139.949 238.56 142.526 235.983 142.526 232.803C142.526 229.623 139.949 227.046 136.769 227.046C133.59 227.046 131.012 229.623 131.012 232.803C131.012 235.983 133.59 238.56 136.769 238.56Z" fill="#1E232C"/>
<path d="M186.34 240.346C189.519 240.346 192.097 237.768 192.097 234.589C192.097 231.409 189.519 228.832 186.34 228.832C183.16 228.832 180.583 231.409 180.583 234.589C180.583 237.768 183.16 240.346 186.34 240.346Z" fill="#1E232C"/>
<path d="M75.4886 182.231L110.3 171.958H135.179C136.094 170.934 137.009 169.78 138.003 168.451C145.096 159.013 142.49 140.45 142.49 140.45C142.49 140.45 124.108 136.363 126.729 121.531C129.088 108.136 144.878 108.136 153.525 117.589C153.525 117.589 166.927 114.438 179.544 100.252C179.544 100.252 188.764 102.43 195.059 101.356C193.955 94.2482 192.068 87.7289 188.213 82.9083C178.775 71.082 152.741 63.2051 132.246 78.1822C111.752 93.1593 113.327 117.589 114.097 127.048C114.097 127.048 92.0266 119.955 76.2655 136.486C71.7037 141.22 68.3812 147.006 66.5929 153.332C64.8047 159.658 64.606 166.328 66.0145 172.749C66.0145 172.749 36.9751 171.929 31.3342 198.761C28.4302 212.504 33.0112 222.094 38.8118 228.454L42.4418 221.064L75.4886 182.231Z" fill="#1E232C"/>
<path d="M107.534 180.917C125.422 178.927 130.366 177.345 135.187 171.958H110.3L75.4887 182.231L42.4273 221.086L38.7974 228.476C39.9792 229.773 41.2503 230.986 42.6015 232.106C46.7106 226.647 53.3534 217.906 57.6294 212.773C74.9733 191.995 83.7432 183.559 107.534 180.917Z" fill="#1E232C"/>
<path d="M168.727 167.137C165.463 165.838 162.277 164.347 159.188 162.673" stroke="#A15842" stroke-width="4" stroke-linecap="round" stroke-linejoin="round"/>
<path d="M64.7732 173.642C65.9161 177.983 67.4619 182.207 69.3905 186.26" stroke="black" stroke-width="4" stroke-linecap="round" stroke-linejoin="round"/>
<path d="M112.63 127.731L114.902 139.666" stroke="black" stroke-width="4" stroke-linecap="round" stroke-linejoin="round"/>
<path d="M86.2261 272.863L102.045 250.495" stroke="#A15842" stroke-width="4" stroke-miterlimit="10" stroke-linecap="round"/>
<path d="M142.49 149.518C147.061 149.518 150.766 145.812 150.766 141.241C150.766 136.67 147.061 132.965 142.49 132.965C137.919 132.965 134.214 136.67 134.214 141.241C134.214 145.812 137.919 149.518 142.49 149.518Z" fill="#F5EBDD"/>
<path d="M144.065 127.048L137.764 123.113" stroke="#A15842" stroke-width="4" stroke-linecap="round" stroke-linejoin="round"/>
<path d="M184.394 145.554C183.087 146.367 178.201 147.006 176.227 143.238" stroke="#A15842" stroke-width="4" stroke-linecap="round" stroke-linejoin="round"/>
<path d="M171.551 127.825C172.858 127.825 173.918 126.766 173.918 125.459C173.918 124.151 172.858 123.092 171.551 123.092C170.244 123.092 169.185 124.151 169.185 125.459C169.185 126.766 170.244 127.825 171.551 127.825Z" fill="#1E232C"/>
<path d="M189.788 124.689C191.095 124.689 192.155 123.629 192.155 122.322C192.155 121.015 191.095 119.956 189.788 119.956C188.481 119.956 187.421 121.015 187.421 122.322C187.421 123.629 188.481 124.689 189.788 124.689Z" fill="#1E232C"/>
<path d="M183.479 128.631C183.479 128.631 185.657 134.018 185.098 135.092C184.728 135.778 184.165 136.341 183.479 136.711" stroke="#A15842" stroke-width="4" stroke-linecap="round" stroke-linejoin="round"/>
<path d="M81.7322 358.957V346.616H58.5878C56.658 357.643 57.1135 368.957 59.9236 379.793H60.8674C66.3961 379.793 71.6987 377.599 75.6108 373.692C79.5229 369.786 81.7245 364.486 81.7322 358.957Z" fill="#A15842"/>
<path d="M288.522 361.477L287.419 360.852C279.694 360.555 270.227 361.302 258.779 363.88L258.597 363.923C257.675 364.126 256.739 364.351 255.787 364.584L255.257 364.714C254.343 364.94 253.421 365.179 252.484 365.44L251.925 365.586C250.902 365.862 249.871 366.159 248.818 366.464L248.499 366.551C247.322 366.9 246.125 367.277 244.912 367.64C202.638 380.889 183.886 414.103 178.245 434.692H190.746C187.015 452.058 179.356 470.483 180.132 510.231C181.724 509.249 183.526 508.658 185.39 508.507C187.254 508.356 189.128 508.649 190.857 509.362C192.585 510.076 194.121 511.189 195.336 512.611C196.551 514.033 197.411 515.723 197.847 517.542C198.47 514.959 199.944 512.66 202.032 511.016C204.12 509.372 206.7 508.478 209.357 508.478C212.014 508.478 214.594 509.372 216.682 511.016C218.77 512.66 220.244 514.959 220.868 517.542C221.491 514.959 222.965 512.66 225.053 511.016C227.141 509.372 229.721 508.478 232.378 508.478C235.035 508.478 237.616 509.372 239.703 511.016C241.791 512.66 243.265 514.959 243.889 517.542C244.512 514.959 245.986 512.66 248.074 511.016C250.162 509.372 252.742 508.478 255.399 508.478C258.056 508.478 260.637 509.372 262.724 511.016C264.812 512.66 266.286 514.959 266.91 517.542C267.533 514.959 269.007 512.66 271.095 511.016C273.183 509.372 275.763 508.478 278.42 508.478C281.077 508.478 283.658 509.372 285.745 511.016C287.833 512.66 289.307 514.959 289.931 517.542C290.478 515.233 291.706 513.142 293.457 511.541C295.207 509.939 297.399 508.901 299.747 508.56C302.095 508.22 304.491 508.593 306.625 509.631C308.758 510.67 310.53 512.326 311.71 514.384C312.894 504.329 314.186 492.938 315.34 480.03C321.99 405.377 327.058 383.481 288.522 361.477Z" fill="#EAA58B"/>
<path d="M293.72 615.47C294.083 605.081 286.736 593.865 266.924 584.862C244.498 574.699 254.473 548.861 260.557 480.705C267.352 404.593 272.5 383.321 231.445 360.859C195.56 341.258 158.999 328.364 158.999 328.364" stroke="#1E232C" stroke-width="4" stroke-miterlimit="10" stroke-linecap="round"/>
<path d="M244.912 367.633C200.75 381.507 183.632 414.191 178.216 434.685C183.886 414.111 202.638 380.911 244.912 367.633Z" fill="#A15842"/>
<path d="M220.534 361.542C235.693 354.403 252.307 350.893 269.059 351.291C251.059 342.444 232.6 334.563 213.76 327.682H64.8096C64.8096 327.682 60.7441 334.455 58.646 346.282C58.646 346.405 58.6097 346.521 58.5879 346.645H81.7323V358.986C81.7323 361.726 81.1927 364.44 80.1441 366.971C79.0956 369.502 77.5586 371.803 75.6212 373.74C73.6837 375.678 71.3836 377.214 68.8521 378.263C66.3207 379.312 63.6075 379.851 60.8675 379.851H59.9237C68.033 410.952 95.1195 434.714 129.843 434.714H159.449C165.468 412.426 178.884 381.1 220.534 361.542Z" fill="#F4BDC7"/>
<path d="M244.912 367.633C262.822 362.006 276.776 360.446 287.419 360.852L286.213 360.184C280.464 357.041 274.692 354.064 269.058 351.291C252.307 350.893 235.693 354.403 220.533 361.542C178.884 381.1 165.467 412.426 159.449 434.685H178.216C183.632 414.19 200.75 381.506 244.912 367.633Z" fill="#A15842"/>
<path d="M191.748 436.558H207.822" stroke="#A15842" stroke-width="4" stroke-linecap="round" stroke-linejoin="round"/>
<path d="M252.128 287.738V322.266" stroke="#1E232C" stroke-width="4" stroke-miterlimit="10" stroke-linecap="round"/>
<path d="M269.596 241.522C269.596 241.522 264.608 252.121 252.129 252.121C239.649 252.121 234.705 241.522 234.705 241.522" stroke="#1E232C" stroke-width="4" stroke-linecap="round" stroke-linejoin="round"/>
<path d="M237.013 264.717H267.251V267.875C267.251 271.886 265.657 275.732 262.821 278.568C259.985 281.404 256.139 282.997 252.128 282.997V282.997C248.118 282.997 244.271 281.404 241.435 278.568C238.599 275.732 237.006 271.886 237.006 267.875V264.717H237.013Z" fill="#A15842"/>
<path d="M236.578 240.339H267.686C268.133 240.339 268.576 240.427 268.989 240.598C269.402 240.769 269.778 241.02 270.094 241.336C270.41 241.652 270.661 242.027 270.832 242.441C271.003 242.854 271.091 243.296 271.091 243.744V268.1C271.091 273.128 269.094 277.949 265.539 281.504C261.984 285.059 257.163 287.056 252.136 287.056V287.056C249.646 287.056 247.181 286.566 244.882 285.613C242.582 284.66 240.492 283.264 238.732 281.504C236.972 279.744 235.576 277.654 234.623 275.354C233.67 273.055 233.18 270.59 233.18 268.1V243.744C233.18 242.84 233.539 241.974 234.177 241.336C234.816 240.697 235.682 240.339 236.585 240.339H236.578Z" stroke="#1E232C" stroke-width="4" stroke-miterlimit="10" stroke-linecap="round"/>
<path d="M252.128 318.883L237.013 327.682H267.251L252.128 318.883Z" fill="#30232A"/>
<path d="M432.173 287.738V322.266" stroke="#1E232C" stroke-width="4" stroke-miterlimit="10" stroke-linecap="round"/>
<path d="M449.64 241.522C449.64 241.522 444.653 252.121 432.173 252.121C419.693 252.121 414.75 241.522 414.75 241.522" stroke="#1E232C" stroke-width="4" stroke-linecap="round" stroke-linejoin="round"/>
<path d="M417.058 264.717H447.295V267.875C447.295 271.886 445.702 275.732 442.866 278.568C440.03 281.404 436.184 282.997 432.173 282.997V282.997C428.162 282.997 424.316 281.404 421.48 278.568C418.644 275.732 417.051 271.886 417.051 267.875V264.717H417.058Z" fill="#FF7235"/>
<path d="M416.622 240.339H447.731C448.178 240.339 448.621 240.427 449.034 240.598C449.447 240.769 449.822 241.02 450.139 241.336C450.455 241.652 450.706 242.027 450.877 242.441C451.048 242.854 451.136 243.296 451.136 243.744V268.1C451.136 273.128 449.139 277.949 445.584 281.504C442.029 285.059 437.208 287.056 432.18 287.056V287.056C427.153 287.056 422.332 285.059 418.777 281.504C415.222 277.949 413.225 273.128 413.225 268.1V243.744C413.225 242.84 413.584 241.974 414.222 241.336C414.861 240.697 415.727 240.339 416.63 240.339H416.622Z" stroke="#1E232C" stroke-width="4" stroke-miterlimit="10" stroke-linecap="round"/>
<path d="M432.173 318.883L417.058 327.682H447.295L432.173 318.883Z" fill="#30232A"/>
<path d="M60.7439 284.355C60.7439 284.355 92.5711 281.741 106.3 281.103" stroke="#A15842" stroke-width="4" stroke-miterlimit="10" stroke-linecap="round"/>
<path d="M22.9491 411.258L12.0593 368.657H75.5904C89.7427 368.656 103.493 373.364 114.675 382.039C125.856 390.714 133.834 402.863 137.35 416.572L144.726 445.43H66.9947C56.9012 445.432 47.0942 442.074 39.1194 435.887C31.1446 429.7 25.4556 421.035 22.9491 411.258V411.258Z" fill="#0273E8"/>
<path d="M596.101 306.694H472.407V319.558H596.101V306.694Z" fill="#F5EBDD"/>
<path d="M345.599 282.997H320.545H295.492V305.343H320.545H345.599H370.653V282.997H345.599Z" fill="#EAA58B"/>
<path d="M345.599 305.343H320.545H295.492V327.682H320.545H345.599H370.653V305.343H345.599Z" fill="#EAA58B"/>
<path d="M345.599 260.652H320.545H295.492V282.997H320.545H345.599H370.653V260.652H345.599Z" fill="#EAA58B"/>
<path d="M345.599 215.967H320.545H295.492V238.313H320.545H345.599H370.653V215.967H345.599Z" fill="#EAA58B"/>
<path d="M345.599 171.283H320.545H295.492V193.621H320.545H345.599H370.653V171.283H345.599Z" fill="#EAA58B"/>
<path d="M345.599 238.313H320.545V260.659H345.599V238.313Z" fill="#EAA58B"/>
<path d="M345.599 193.621H320.545V215.967H345.599V193.621Z" fill="#EAA58B"/>
<path d="M345.599 305.343V282.997" stroke="#A15842" stroke-width="4" stroke-linejoin="round"/>
<path d="M320.545 305.343V282.997" stroke="#A15842" stroke-width="4" stroke-linejoin="round"/>
<path d="M345.599 147.964H320.545H295.492V170.31H320.545H345.599H370.653V147.964H345.599Z" fill="#EAA58B"/>
<path d="M345.599 170.31V147.964" stroke="#A15842" stroke-width="4" stroke-linejoin="round"/>
<path d="M320.545 170.31V147.964" stroke="#A15842" stroke-width="4" stroke-linejoin="round"/>
<path d="M295.492 305.343H320.545H345.599H370.653" stroke="#A15842" stroke-width="4" stroke-linejoin="round"/>
<path d="M295.492 282.997H320.545H345.599H370.653" stroke="#A15842" stroke-width="4" stroke-linejoin="round"/>
<path d="M295.492 171.283H320.545H345.599H370.653" stroke="#A15842" stroke-width="4" stroke-linejoin="round"/>
<path d="M320.545 259.301H328.894H337.25H345.599" stroke="#A15842" stroke-width="4" stroke-linejoin="round"/>
<path d="M320.545 239.663H328.894H337.25H345.599" stroke="#A15842" stroke-width="4" stroke-linejoin="round"/>
<path d="M320.545 214.617H328.894H337.25H345.599" stroke="#A15842" stroke-width="4" stroke-linejoin="round"/>
<path d="M320.545 194.979H328.894H337.25H345.599" stroke="#A15842" stroke-width="4" stroke-linejoin="round"/>
<path d="M618.323 366.486C613.183 336.844 595.636 319.558 595.636 319.558H549.369C549.369 319.558 478.085 339.087 443.506 360.213C403.577 384.592 407.591 403.947 414.387 480.059C416.811 507.204 419.853 527.626 421.218 543.024H489.243C489.243 542.937 489.243 542.85 489.243 542.763H501.795C501.795 542.763 508.242 512.939 501.113 486.361C493.635 458.497 486.84 453.742 482.767 434.714H560.796C596.965 434.685 624.501 402.117 618.323 366.486Z" fill="#1E232C"/>
<path d="M482.121 435.832H465.699" stroke="black" stroke-width="4" stroke-linecap="round" stroke-linejoin="round"/>
<path d="M650.92 411.258L661.81 368.657H598.301C584.148 368.655 570.397 373.363 559.215 382.038C548.033 390.713 540.056 402.863 536.541 416.572L529.158 445.43H606.867C616.962 445.432 626.77 442.075 634.746 435.888C642.722 429.701 648.412 421.036 650.92 411.258Z" fill="#F4BDC7"/>
<path d="M561.783 327.682H110.169C105.31 327.682 101.37 331.621 101.37 336.481V336.488C101.37 341.348 105.31 345.287 110.169 345.287H561.783C566.643 345.287 570.582 341.348 570.582 336.488V336.481C570.582 331.621 566.643 327.682 561.783 327.682Z" fill="#A15842"/>
<path d="M165.017 287.063C158.738 284.21 142.671 281.647 127.099 281.647C124.137 281.647 120.95 281.698 117.618 281.792V325.686C125.328 323.29 131.68 321.025 135.898 319.558C135.898 319.558 166.898 343.24 172.422 332.408C172.422 332.408 180.51 335.675 182.586 327.682C182.586 327.682 192.068 327.682 188.684 320.916C186.405 316.299 176.502 306.019 176.502 306.019C176.502 306.019 188.263 313.111 194.108 308.726C199.545 304.683 172.459 290.446 165.017 287.063Z" fill="#EAA58B"/>
<path d="M58.7112 285.705L14.7019 287.738C10.6437 309.401 21.9618 331.747 41.1061 335.13C66.2905 339.574 96.8618 332.139 117.618 325.693V281.792C92.1865 282.533 58.7112 285.705 58.7112 285.705Z" fill="#CE596D"/>
<path d="M177.795 305.213C172.466 300.958 165.184 295.238 160.277 291.796" stroke="#A15842" stroke-width="4" stroke-miterlimit="10" stroke-linecap="round"/>
<path d="M152.153 299.826C165.46 309.089 177.432 321.315 183.116 327.464" stroke="#A15842" stroke-width="4" stroke-miterlimit="10" stroke-linecap="round"/>
<path d="M145.895 309.394C154.839 315.928 165.083 325.802 171.769 332.539" stroke="#A15842" stroke-width="4" stroke-miterlimit="10" stroke-linecap="round"/>
<path d="M424.332 299.928C409.442 307.376 397.587 320.255 387.097 333.78C382.356 339.871 370.399 355.044 378.29 356.801C384.389 358.152 396.578 345.97 396.578 345.97C396.578 345.97 389.238 361.861 394.545 366.297C398.603 369.688 403.983 364.272 403.983 364.272C408.724 374.435 416.172 365.622 416.172 365.622C428.122 374.435 439.868 341.926 439.868 341.926C446.835 339.446 453.43 336.027 459.47 331.762C459.47 331.762 463.332 332.764 469.576 333.998L463.942 288.333C449.212 291.056 434.554 294.817 424.332 299.928Z" fill="#A15842"/>
<path d="M394.298 347.995C396.476 342.26 400.317 332.546 403.736 325.99" stroke="#1E232C" stroke-width="4" stroke-miterlimit="10" stroke-linecap="round"/>
<path d="M416.209 330.39C410.546 342.594 406.4 355.966 404.092 364.264" stroke="#1E232C" stroke-width="4" stroke-miterlimit="10" stroke-linecap="round"/>
<path d="M429.073 334.448C424.79 344.249 420.434 357.513 417.697 366.333" stroke="#1E232C" stroke-width="4" stroke-miterlimit="10" stroke-linecap="round"/>
<path d="M555.01 327.682C578.481 308.131 604.522 264.441 607.143 215.967C608.501 190.914 588.863 178.049 573.973 178.049H568.535L520.467 281.647C520.467 281.647 491.972 283.15 464 288.319L469.634 333.984C489.824 337.984 534.878 344.46 555.01 327.682Z" fill="#0273E8"/>
<path d="M541.02 237.5L521.208 280.195" stroke="#223446" stroke-width="4" stroke-linecap="round" stroke-linejoin="round"/>
<path d="M575.025 305.641C579.644 299.203 583.804 292.45 587.476 285.429C589.654 281.277 591.723 276.95 593.632 272.47" stroke="#223446" stroke-width="4" stroke-linecap="round" stroke-linejoin="round"/>
<path d="M476.69 284.863C500.278 281.299 513.338 280.87 522.05 280.144C527.858 279.665 535.844 279.418 535.844 279.418" stroke="#223446" stroke-width="4" stroke-linecap="round" stroke-linejoin="round"/>
<path d="M486.288 326.332C489.468 326.332 492.045 323.754 492.045 320.574C492.045 317.395 489.468 314.817 486.288 314.817C483.108 314.817 480.531 317.395 480.531 320.574C480.531 323.754 483.108 326.332 486.288 326.332Z" fill="#1E232C"/>
<path d="M470.048 335.37C463.993 334.165 460.269 333.192 460.269 333.192C454.228 337.457 447.633 340.877 440.667 343.356C440.667 343.356 440.26 344.488 439.513 346.26" stroke="#1E232C" stroke-width="4" stroke-miterlimit="10" stroke-linecap="round"/>
<path d="M377.818 344.655C380.234 340.89 382.846 337.255 385.645 333.766C387.029 331.98 388.44 330.211 389.877 328.459" stroke="#1E232C" stroke-width="4" stroke-miterlimit="10" stroke-linecap="round"/>
</g>
</svg>
